<?xml version="1.0" encoding="utf-8"?>
<svg version="1.1" xmlns="http://www.w3.org/2000/svg" width="1920px" height="763px" viewbox="0 0 1920 763">
<g>
<path fill="#343434" d="M315.7,675.7l-209.3,70.2l-14-41.9l167.4-56.2l-14-41.9L78.4,662.2l-28.1-83.7l41.9-14l14,41.9l167.4-56.1 L315.7,675.7z"/>
<path fill="#343434" d="M566.8,591.4l-41.9,14l-28.1-83.7l-125.6,42.1l14,41.9l83.7-28.1l14,41.9l-125.6,42.1l-42.1-125.6l209.3-70.2 L566.8,591.4z"/>
<path fill="#343434" d="M789.8,423.5l-83.7,28.1l28.1,83.7l-125.6,42.1l-14-41.9l83.7-28.1l-28.1-83.7l125.6-42.1L789.8,423.5z"/>
<path fill="#343434" d="M858.1,349.4l-41.9,14l-14-41.9l41.9-14L858.1,349.4z M901.6,479.2l-41.9,14l-29.5-87.9l41.9-14L901.6,479.2z"/>
<path fill="#343434" d="M1138.7,353.1l14,41.9l-209.3,70.2l-42.1-125.6l209.3-70.2l14,41.9l-167.4,56.1l14,41.9L1138.7,353.1z"/>
<path fill="#343434" d="M1180.5,339l167.4-56.1l14,41.9l-167.4,56.1L1180.5,339z"/>
<path fill="#343434" d="M1613.1,240.5l-209.3,70.2l-42.1-125.6l41.9-14l28.1,83.7l41.9-14l-28.1-83.7l41.9-14l28.1,83.7l41.9-14 l-28.1-83.7l41.9-14L1613.1,240.5z"/>
<path fill="#343434" d="M1864.2,156.3l-167.4,56.1l14,41.9l-41.9,14l-28.1-83.7l167.4-56.1l-14-41.9l-167.4,56.1l-14-41.9l209.3-70.2 L1864.2,156.3z"/>
</g>
</svg>
